Coordinates
version=1
nRows=13
nColumns=40
inDegrees=yes

Units are S.I. units (second, meters, Newtons, ...)
If the header above contains a line with 'inDegrees', this indicates whether rotational values are in degrees (yes) or radians (no).

endheader
time	pelvis_tilt	pelvis_list	pelvis_rotation	pelvis_tx	pelvis_ty	pelvis_tz	hip_flexion_r	hip_adduction_r	hip_rotation_r	knee_angle_r	knee_angle_r_beta	ankle_angle_r	subtalar_angle_r	mtp_angle_r	hip_flexion_l	hip_adduction_l	hip_rotation_l	knee_angle_l	knee_angle_l_beta	ankle_angle_l	subtalar_angle_l	mtp_angle_l	lumbar_extension	lumbar_bending	lumbar_rotation	arm_flex_r	arm_add_r	arm_rot_r	elbow_flex_r	pro_sup_r	wrist_flex_r	wrist_dev_r	arm_flex_l	arm_add_l	arm_rot_l	elbow_flex_l	pro_sup_l	wrist_flex_l	wrist_dev_l
      0.00000000	     -7.83464183	     -6.13555542	      1.35983742	     -0.23781569	      1.16523205	     -0.01430655	     80.26664808	     -9.86648882	     -4.94466458	    113.23484185	      1.97632082	     20.29780275	      4.10858103	      0.00000000	     38.20115732	    -12.83269550	      1.96069873	     49.23119408	      0.85924643	     -1.19851792	     -7.13574470	      0.00000000	    -63.44495831	      5.52030593	      5.38551198	     89.85785064	    -15.90595002	     70.44784495	     33.00206219	     53.67604654	      0.00000000	      0.00000000	     82.32360686	    -13.72144140	     32.22860643	     36.23060276	     62.88221733	      0.00000000	      0.00000000
      0.00833333	     -7.80450460	     -5.90222104	      1.39929856	     -0.23805562	      1.16600109	     -0.01423804	     80.36515843	    -10.00956697	     -4.94600226	    112.29122670	      1.95985163	     20.18396111	      4.03566199	      0.00000000	     38.03487312	    -12.66278221	      1.90159254	     49.96162856	      0.87199492	     -1.08821584	     -7.13263383	      0.00000000	    -63.54285830	      5.35901490	      5.18888908	     89.86170009	    -15.96293929	     70.35385689	     33.02371843	     53.67028330	      0.00000000	      0.00000000	     82.45177172	    -13.66383570	     32.21916751	     36.23521204	     62.91751860	      0.00000000	      0.00000000
      0.01666667	     -7.72087539	     -5.73019034	      1.37863845	     -0.23830310	      1.16594031	     -0.01408050	     80.49840345	    -10.04793502	     -4.92405334	    111.56042539	      1.94709674	     19.98292233	      3.76950402	      0.00000000	     38.14098347	    -12.64100601	      1.79395141	     51.31585809	      0.89563068	     -0.69069353	     -7.27534339	      0.00000000	    -63.61792145	      5.19418067	      5.03336439	     89.85866427	    -15.98577934	     70.15325073	     33.14230352	     53.67142372	      0.00000000	      0.00000000	     82.55529025	    -13.64771687	     32.20382215	     36.14684697	     63.00525182	      0.00000000	      0.00000000
      0.02500000	     -7.72609113	     -5.45723881	      1.39668668	     -0.23868027	      1.16658345	     -0.01397560	     80.53062597	    -10.14257808	     -4.99730379	    110.38563482	      1.92659277	     19.97520131	      3.72190836	      0.00000000	     38.13107498	    -12.43903813	      1.72102674	     52.21164310	      0.91126508	     -0.50492593	     -7.30759071	      0.00000000	    -63.67455420	      4.98567640	      4.81614948	     89.86227525	    -16.05513237	     70.08148306	     33.16938014	     53.67023063	      0.00000000	      0.00000000	     82.69095633	    -13.59198584	     32.21177874	     36.16460278	     63.04093172	      0.00000000	      0.00000000
      0.03333333	     -8.04006304	     -5.68849941	      1.35511883	     -0.23945254	      1.16564893	     -0.01343620	     80.85572630	     -9.95533261	     -5.46162320	    109.34227297	      1.90838268	     19.67605010	      3.09986602	      0.00000000	     39.05911912	    -12.78791531	      1.97107917	     54.04194426	      0.94320986	      0.15258092	     -7.51274659	      0.00000000	    -63.33712156	      5.03545517	      5.04522414	     89.85807076	    -16.15386118	     70.09117794	     33.34548501	     53.42535209	      0.00000000	      0.00000000	     82.77800861	    -13.53387559	     32.51426326	     36.06612953	     62.19633989	      0.00000000	      0.00000000
      0.04166667	     -8.25820440	     -5.66765625	      1.41444973	     -0.24011274	      1.16525771	     -0.01333942	     80.98234264	     -9.97217867	     -5.69627402	    108.17050584	      1.88793148	     19.31708067	      2.68296831	      0.00000000	     39.75833132	    -12.71501295	      2.30434327	     55.60520207	      0.97049386	      0.40107977	     -7.89391512	      0.00000000	    -63.12405301	      5.03118645	      4.99564184	     89.85702203	    -16.22446320	     69.97081998	     33.35607666	     53.80967545	      0.00000000	      0.00000000	     82.80201976	    -13.45954980	     32.07198581	     35.93589997	     64.06517133	      0.00000000	      0.00000000
      0.05000000	     -8.22775059	     -5.49826911	      1.39130958	     -0.24047131	      1.16539675	     -0.01315109	     80.76893873	     -9.99484267	     -5.81464741	    106.95712994	      1.86675408	     19.05286463	      2.64230596	      0.00000000	     40.06320901	    -12.65465676	      2.32178208	     57.09507305	      0.99649701	      0.80188186	     -8.02091233	      0.00000000	    -63.16981737	      4.84390873	      4.84339142	     89.85716286	    -16.23824207	     69.87522865	     33.40143305	     53.67758804	      0.00000000	      0.00000000	     82.94197222	    -13.48799249	     32.34670380	     35.93924081	     63.50265419	      0.00000000	      0.00000000
      0.05833333	     -8.23561008	     -5.36234895	      1.44987653	     -0.24094519	      1.16545471	     -0.01305540	     80.48841296	     -9.99449728	     -5.90857211	    105.63865815	      1.84374240	     18.97519668	      2.48517095	      0.00000000	     40.53876335	    -12.57302385	      2.47719303	     58.71429498	      1.02475777	      1.13171488	     -7.98467802	      0.00000000	    -63.17599139	      4.73938294	      4.74141031	     89.85681287	    -16.36120034	     69.81519674	     33.62067183	     53.45888254	      0.00000000	      0.00000000	     83.09958074	    -13.39133671	     32.60965725	     35.89749427	     62.44195590	      0.00000000	      0.00000000
      0.06666667	     -7.93977466	     -4.99203338	      1.44900305	     -0.24081207	      1.16553750	     -0.01334869	     79.91444151	    -10.07484561	     -5.75461527	    104.42817194	      1.82261543	     18.89771851	      2.49396101	      0.00000000	     40.82776004	    -12.51583915	      2.04189459	     60.67496718	      1.05897795	      1.26736362	     -7.99842930	      0.00000000	    -63.43386117	      4.47754201	      4.39292602	     89.85523591	    -16.34897825	     69.69017888	     33.64181225	     53.47076668	      0.00000000	      0.00000000	     83.16566658	    -13.39137347	     32.57230008	     35.90355581	     62.54681356	      0.00000000	      0.00000000
      0.07500000	     -7.97942695	     -5.09767109	      1.31875538	     -0.24122867	      1.16534772	     -0.01277174	     79.51102783	     -9.78752451	     -6.13648537	    102.93475413	      1.79655037	     18.64225236	      2.44992279	      0.00000000	     41.50673366	    -12.83041076	      2.15715606	     62.59293216	      1.09245275	      1.78361518	     -8.06785356	      0.00000000	    -63.38746046	      4.35826156	      4.52569137	     89.85668228	    -16.29414481	     69.75387048	     33.47945210	     53.47099273	      0.00000000	      0.00000000	     83.19442536	    -13.41079768	     32.63019165	     35.93401833	     62.61578127	      0.00000000	      0.00000000
      0.08333333	     -8.07368711	     -5.00490213	      1.32011659	     -0.24189425	      1.16523682	     -0.01269642	     79.13080209	     -9.72616725	     -6.34356184	    101.38590644	      1.76951788	     18.36527584	      2.14979536	      0.00000000	     42.24011284	    -12.83368333	      2.27900089	     64.40607506	      1.12409807	      2.15641045	     -8.03309666	      0.00000000	    -63.31572801	      4.23502562	      4.43403119	     89.85513593	    -16.34724864	     69.53671423	     33.50873496	     53.85891004	      0.00000000	      0.00000000	     83.26375770	    -13.30470798	     32.14361479	     35.78974850	     64.44152975	      0.00000000	      0.00000000
      0.09166667	     -8.01843616	     -4.64102923	      1.27291046	     -0.24217859	      1.16519064	     -0.01292079	     78.59674353	     -9.70074183	     -6.19076240	     99.87700974	      1.74318267	     18.39255739	      2.04525058	      0.00000000	     42.76467731	    -12.55609264	      2.25751843	     66.29946474	      1.15714395	      2.65550324	     -8.14767746	      0.00000000	    -63.36722125	      3.95221241	      4.15234741	     89.84752254	    -16.45843372	     69.33979396	     33.84851894	     53.55432709	      0.00000000	      0.00000000	     83.33368190	    -13.00889522	     32.01451447	     36.10066869	     62.87560283	      0.00000000	      0.00000000
      0.10000000	     -7.93976555	     -4.72195603	      1.31291523	     -0.24246155	      1.16532737	     -0.01248903	     77.82505031	     -9.56892117	     -6.63570118	     98.18855194	      1.71371352	     17.60824431	      2.07048795	      0.00000000	     43.42339538	    -12.71084024	      2.54808724	     68.26813717	      1.19150377	      2.97495656	     -8.39995030	      0.00000000	    -63.45532328	      3.92959556	      4.13351625	     89.85368595	    -16.28076987	     69.42467571	     33.48770115	     53.59147920	      0.00000000	      0.00000000	     83.40678366	    -13.25298758	     32.86963266	     36.52219742	     60.56783044	      0.00000000	      0.00000000
